<svg width="20" height="20" viewBox="0 0 20 20" fill="none" xmlns="http://www.w3.org/2000/svg">
<path d="M14.375 13.125C14.5407 13.1248 14.6996 13.0589 14.8167 12.9417C14.9339 12.8246 14.9998 12.6657 15 12.5V8.75C14.9998 8.5843 14.9339 8.42543 14.8167 8.30826C14.6996 8.19109 14.5407 8.12519 14.375 8.125H3.75C3.5843 8.12519 3.42543 8.19109 3.30826 8.30826C3.19109 8.42543 3.12519 8.5843 3.125 8.75V12.5C3.12519 12.6657 3.19109 12.8246 3.30826 12.9417C3.42543 13.0589 3.5843 13.1248 3.75 13.125H14.375ZM10.8495 9.37961L11.4722 11.2008L12.0748 9.37961H12.6016L11.7204 11.8405H11.19L10.3105 9.37961H10.8495ZM9.5793 10.9766C9.52988 10.9262 9.46831 10.8895 9.40055 10.87C9.34232 10.8498 9.20971 10.814 9.00273 10.7626C8.73638 10.6966 8.54951 10.6155 8.44211 10.5192C8.37029 10.4584 8.31276 10.3825 8.2736 10.2969C8.23444 10.2113 8.21462 10.1182 8.21555 10.0241C8.21552 9.89892 8.25261 9.77657 8.32211 9.6725C8.39695 9.56028 8.50406 9.47338 8.6293 9.42328C8.78333 9.36234 8.94808 9.33311 9.11367 9.33734C9.42253 9.33734 9.655 9.40505 9.81109 9.54047C9.88851 9.60795 9.95053 9.69127 9.99294 9.7848C10.0354 9.87833 10.0572 9.97988 10.057 10.0826L9.56016 10.1044C9.55018 9.99958 9.50139 9.9023 9.42336 9.83164C9.33063 9.7697 9.21989 9.74048 9.10867 9.74859C8.98909 9.74175 8.87042 9.7729 8.76961 9.83758C8.74471 9.85438 8.72444 9.87718 8.71065 9.90387C8.69686 9.93056 8.69 9.96028 8.6907 9.99031C8.69077 10.0192 8.69746 10.0477 8.71026 10.0736C8.72306 10.0995 8.74162 10.1221 8.76453 10.1397C8.82703 10.1923 8.97922 10.2471 9.22109 10.3041C9.40617 10.342 9.58615 10.4014 9.75734 10.4813C9.86897 10.5384 9.96295 10.6248 10.0292 10.7313C10.0968 10.8523 10.1307 10.9893 10.1273 11.1279C10.1239 11.2665 10.0834 11.4017 10.0099 11.5193C9.93055 11.6433 9.81432 11.7392 9.67758 11.7938C9.5067 11.8585 9.32476 11.889 9.14211 11.8835C8.83102 11.8835 8.59211 11.8116 8.42539 11.6678C8.24888 11.5043 8.14193 11.2793 8.12664 11.0392L8.61008 10.9923C8.62577 11.1285 8.68839 11.2549 8.78719 11.3498C8.88934 11.4304 9.01731 11.4709 9.14719 11.464C9.27592 11.4734 9.40387 11.4374 9.50891 11.3624C9.54602 11.3348 9.5763 11.299 9.5974 11.2578C9.61851 11.2167 9.62987 11.1712 9.63063 11.1249C9.63196 11.0709 9.61373 11.0182 9.5793 10.9766V10.9766ZM5.98273 9.6775C6.08944 9.56454 6.2191 9.47576 6.363 9.41712C6.5069 9.35849 6.66169 9.33136 6.81695 9.33758C7.08711 9.32614 7.35082 9.42209 7.55047 9.60445C7.67391 9.72989 7.76095 9.88651 7.80227 10.0576L7.31047 10.1748C7.28773 10.0553 7.22288 9.94788 7.12771 9.87212C7.03254 9.79636 6.91335 9.75724 6.7918 9.76188C6.7078 9.75919 6.62427 9.77545 6.54741 9.80945C6.47055 9.84345 6.40233 9.89432 6.34781 9.95828C6.23422 10.0892 6.17742 10.3013 6.17742 10.5945C6.17742 10.9055 6.23336 11.1271 6.34523 11.2591C6.39807 11.3232 6.46486 11.3744 6.5405 11.4087C6.61613 11.443 6.69862 11.4596 6.78164 11.4572C6.90701 11.4596 7.02868 11.4147 7.12234 11.3313C7.23016 11.2238 7.30174 11.0854 7.32711 10.9352L7.80883 11.088C7.75611 11.3229 7.62644 11.5335 7.44039 11.6863C7.25027 11.8223 7.02022 11.8911 6.78664 11.8816C6.63627 11.8863 6.48664 11.8588 6.34772 11.8011C6.2088 11.7434 6.08379 11.6567 5.98102 11.5468C5.77065 11.3236 5.66547 11.0184 5.66547 10.6312C5.66552 10.222 5.77128 9.90411 5.98273 9.6775V9.6775Z" fill="white"/>
<path d="M15.625 0.625H5C4.66859 0.625372 4.35087 0.757188 4.11653 0.991528C3.88219 1.22587 3.75037 1.54359 3.75 1.875V7.5H4.375V1.875C4.37519 1.7093 4.44109 1.55043 4.55826 1.43326C4.67543 1.31609 4.8343 1.25019 5 1.25H15.625C15.7907 1.25019 15.9496 1.31609 16.0667 1.43326C16.1839 1.55043 16.2498 1.7093 16.25 1.875V14.9241C16.2498 14.9495 16.2481 14.9748 16.2449 15H13.4375C13.1889 15.0003 12.9507 15.0992 12.7749 15.2749C12.5992 15.4507 12.5003 15.6889 12.5 15.9375V18.7449C12.4748 18.7481 12.4495 18.7498 12.4241 18.75H5C4.8343 18.7498 4.67543 18.6839 4.55826 18.5667C4.44109 18.4496 4.37519 18.2907 4.375 18.125V13.75H3.75V18.125C3.75037 18.4564 3.88219 18.7741 4.11653 19.0085C4.35087 19.2428 4.66859 19.3746 5 19.375H12.4241C12.5884 19.3754 12.751 19.3433 12.9028 19.2805C13.0545 19.2176 13.1922 19.1253 13.308 19.0089L16.5089 15.808C16.6253 15.6922 16.7176 15.5545 16.7805 15.4028C16.8433 15.251 16.8754 15.0884 16.875 14.9241V1.875C16.8746 1.54359 16.7428 1.22587 16.5085 0.991528C16.2741 0.757188 15.9564 0.625372 15.625 0.625V0.625Z" fill="white"/>
</svg>
